<?xml version="1.0" standalone="no"?>
<!DOCTYPE svg PUBLIC "-//W3C//DTD SVG 20010904//EN"
 "http://www.w3.org/TR/2001/REC-SVG-20010904/DTD/svg10.dtd">
<svg version="1.0" xmlns="http://www.w3.org/2000/svg"
 width="512.000000pt" height="512.000000pt" viewBox="0 0 512.000000 512.000000"
 preserveAspectRatio="xMidYMid meet">

<g transform="translate(0.000000,512.000000) scale(0.100000,-0.100000)"
fill="#000000" stroke="none">
<path d="M2395 5114 c-323 -35 -654 -172 -903 -373 l-62 -51 -528 0 -527 0
-50 -24 c-27 -12 -66 -41 -86 -63 -75 -83 -70 58 -67 -1848 l3 -1710 22 -41
c30 -56 79 -103 133 -128 44 -21 58 -21 812 -24 l768 -3 -85 -169 -85 -170
-173 0 c-159 0 -176 -2 -222 -24 -55 -25 -110 -81 -132 -134 -8 -19 -14 -63
-14 -97 0 -77 32 -148 88 -194 78 -64 12 -61 1273 -61 1261 0 1195 -3 1273 61
56 46 88 117 88 194 0 34 -6 78 -14 97 -22 53 -77 109 -132 134 -46 22 -63 24
-222 24 l-173 0 -85 170 -85 169 768 3 c754 3 768 3 812 24 54 25 103 72 133
128 l22 41 3 1710 c3 1906 8 1765 -67 1848 -20 22 -58 51 -86 63 l-50 24 -528
0 -528 0 -62 52 c-90 75 -197 143 -322 203 -238 116 -435 164 -700 169 -93 2
-188 2 -210 0z m371 -529 c102 -18 178 -57 317 -161 202 -151 366 -389 441
-636 79 -260 72 -555 -19 -808 -104 -286 -321 -542 -578 -680 -163 -88 -425
-102 -678 -34 -114 30 -309 124 -399 193 -87 65 -225 211 -278 291 -126 192
-189 388 -199 620 -24 589 395 1109 979 1215 102 18 307 18 414 0z m-1535
-100 c-53 -61 -147 -207 -199 -311 -66 -131 -116 -278 -149 -433 -24 -113 -27
-147 -27 -331 0 -184 3 -218 27 -331 74 -349 223 -626 471 -875 151 -150 291
-250 477 -338 470 -223 1026 -218 1489 14 257 129 502 343 653 570 84 127 170
300 211 425 139 425 104 900 -94 1294 -53 105 -148 255 -199 314 l-33 37 365
0 366 0 10 -37 c7 -26 11 -514 11 -1490 l0 -1453 -2135 0 -2135 0 0 1438 c0
963 4 1449 11 1474 18 68 13 67 488 68 l423 0 -31 -35z m3379 -3246 c0 -66 -5
-140 -11 -165 l-11 -44 -2095 0 -2094 0 -24 25 c-24 23 -25 29 -25 165 l0 140
2130 0 2130 0 0 -121z m-1040 -925 c13 -33 13 -86 0 -119 l-10 -25 -1071 2
-1071 3 -24 28 c-34 39 -31 79 7 111 l31 26 1064 0 1064 0 10 -26z"/>
<path d="M2504 4431 c-11 -5 -32 -23 -46 -39 -39 -47 -570 -913 -581 -948 -7
-22 -6 -42 2 -65 6 -19 139 -240 294 -493 201 -327 291 -464 312 -477 39 -25
111 -25 150 0 21 13 110 149 309 472 154 249 286 471 294 491 12 29 13 46 5
72 -14 46 -549 913 -589 955 -26 28 -41 34 -81 37 -26 2 -57 0 -69 -5z m293
-581 c128 -208 235 -384 238 -392 4 -9 -70 -57 -234 -151 l-240 -137 -241 138
c-156 89 -238 142 -235 150 8 22 470 771 475 771 3 0 110 -170 237 -379z
m-404 -785 c81 -45 150 -78 166 -78 23 0 137 59 345 181 11 6 28 34 -169 -285
-92 -150 -171 -273 -175 -273 -6 0 -303 473 -349 555 -3 6 6 3 19 -6 14 -8 87
-51 163 -94z"/>
</g>
</svg>
