<?xml version="1.0" standalone="no"?>
<!DOCTYPE svg PUBLIC "-//W3C//DTD SVG 20010904//EN"
 "http://www.w3.org/TR/2001/REC-SVG-20010904/DTD/svg10.dtd">
<svg version="1.0" xmlns="http://www.w3.org/2000/svg"
 width="512.000000pt" height="512.000000pt" viewBox="0 0 512.000000 512.000000"
 preserveAspectRatio="xMidYMid meet"
 style="background-color:black">

<g transform="translate(0.000000,512.000000) scale(0.100000,-0.100000)"
fill="#fff" background-color="#000" stroke="none">
<path d="M2505 5101 c-21 -13 -56 -65 -116 -173 -126 -225 -248 -420 -559
-893 -414 -630 -392 -594 -394 -668 -1 -59 -4 -67 -75 -177 -41 -63 -184 -292
-318 -509 -208 -338 -243 -400 -243 -433 0 -50 5 -59 110 -198 48 -63 194
-263 325 -445 547 -758 791 -1063 1123 -1406 224 -231 260 -243 371 -123 95
101 409 499 416 527 8 29 -16 81 -40 91 -9 3 -30 6 -47 6 -38 0 -145 -82 -317
-244 -68 -64 -127 -113 -131 -109 -467 533 -1034 1194 -1230 1435 -73 90 -140
171 -149 181 -13 16 -8 15 39 -6 635 -283 911 -393 1133 -452 55 -15 71 -24
82 -45 24 -47 92 -55 134 -17 17 15 58 31 113 44 47 12 169 54 270 94 440 173
642 256 772 315 77 35 141 62 142 61 1 -1 -85 -110 -192 -242 -291 -361 -276
-340 -276 -380 0 -46 25 -83 69 -101 44 -19 83 -11 115 24 13 15 102 133 196
262 95 129 244 329 332 444 135 177 160 215 160 244 0 27 -25 74 -113 211
-316 491 -598 972 -1210 2061 -354 629 -361 640 -431 640 -17 0 -44 -8 -61
-19z m551 -1156 c372 -626 597 -996 791 -1303 74 -117 133 -215 131 -217 -2
-2 -129 53 -283 121 -556 248 -686 293 -1034 360 l-24 5 7 112 c4 62 20 286
37 500 22 286 30 465 32 687 1 164 5 296 9 292 3 -4 154 -254 334 -557z m-635
310 c-6 -125 -11 -478 -11 -785 l0 -559 -47 -6 c-269 -35 -518 -126 -996 -362
-209 -104 -265 -128 -256 -110 29 55 232 399 332 562 60 99 117 191 125 205 9
16 32 31 61 40 57 19 55 15 288 405 347 578 508 843 511 840 2 -2 -1 -105 -7
-230z m474 -1615 c181 -40 438 -139 1030 -395 l40 -17 -75 -20 c-360 -92 -699
-218 -1013 -375 -82 -41 -170 -82 -196 -93 l-48 -19 -7 61 c-8 80 -8 816 1
858 l6 33 86 -7 c47 -3 126 -15 176 -26z m-471 -167 c12 -325 26 -636 32 -690
3 -33 2 -53 -5 -53 -31 0 -300 77 -454 130 -208 72 -817 318 -817 330 0 3 53
20 118 39 225 66 578 206 832 328 108 52 236 98 281 102 4 1 10 -83 13 -186z"/>
</g>
</svg>
